<?xml version="1.0" encoding="UTF-8"?>
<svg width="95px" height="25px" viewBox="0 0 95 25" version="1.1" xmlns="http://www.w3.org/2000/svg" xmlns:xlink="http://www.w3.org/1999/xlink">
    <!-- Generator: Sketch 45.1 (43504) - http://www.bohemiancoding.com/sketch -->
    <title>Logo</title>
    <desc>Created with Sketch.</desc>
    <defs></defs>
    <g id="Light-Theme-v2" stroke="none" stroke-width="1" fill="none" fill-rule="evenodd">
        <g id="webtask-editor-v2-_-LightTheme" transform="translate(-22.000000, -24.000000)">
            <g id="Header">
                <g id="Logo">
                    <g transform="translate(22.000000, 18.000000)">
                        <g transform="translate(0.000000, 6.000000)">
                            <g id="logo-color">
                                <g id="iso">
                                    <polygon id="Fill-1" fill="#6F373F" points="0 24.9547604 24.9547604 24.9547604 24.9547604 0 0 0"></polygon>
                                    <polygon id="Fill-2" fill="#F27466" points="4.99095208 24.9547604 24.9549267 24.9547604 24.9549267 4.99095208 4.99095208 4.99095208"></polygon>
                                    <polygon id="Fill-3" fill="#F79B5B" points="4.99095208 19.9638083 19.9638083 19.9638083 19.9638083 4.99095208 4.99095208 4.99095208"></polygon>
                                    <polygon id="Fill-4" fill="#FAE75F" points="9.98190415 19.9638083 19.9638083 19.9638083 19.9638083 9.98190415 9.98190415 9.98190415"></polygon>
                                    <polygon id="Fill-5" fill="#FEFEFE" points="9.98190415 14.9728562 14.9728562 14.9728562 14.9728562 9.98190415 9.98190415 9.98190415"></polygon>
                                </g>
                                <g id="webtask" transform="translate(30.000000, 5.000000)" fill="#F79A5A">
                                    <path d="M6.40731706,7.19502505 L6.35265616,7.19502505 C6.22511404,7.77807473 4.82239698,13.3704765 4.64019395,14.0992886 L2.47247041,14.0992886 C1.74390454,10.9112281 0.996872138,7.72341382 0.231619438,4.51713305 L2.12628467,4.51713305 C2.34492829,5.50102937 3.51078143,11.2574138 3.69298445,12.3321654 L3.74764536,12.3321654 C3.72942505,12.3139451 4.93171879,7.26790626 5.60562376,4.51713305 L7.31808596,4.51713305 C7.57317019,5.50102937 8.99410756,11.2391935 9.19453089,12.3321654 L9.24919179,12.3321654 C9.23097149,12.3321654 10.2692825,7.26790626 10.8338657,4.51713305 L12.5281076,4.51713305 C11.7992955,7.72341382 11.0889499,10.9112281 10.3421637,14.0992886 L8.08309244,14.0992886 C7.91935594,13.4069171 6.58952009,8.19689546 6.40731706,7.19502505" id="Fill-6"></path>
                                    <path d="M19.3048536,8.56127689 L19.3048536,7.94203283 C19.3048536,6.57575637 18.8313719,5.71940216 17.5744173,5.71940216 C16.4629788,5.71940216 15.8072942,6.57575637 15.8072942,8.56127689 L19.3048536,8.56127689 Z M21.2724,9.78179093 L15.7890739,9.78179093 C15.7890739,11.6946765 16.4267844,12.7147672 18.0661192,12.7147672 L20.8715533,12.7147672 L20.8715533,13.8259594 C20.0336657,14.044603 18.9586678,14.2450263 17.8839162,14.2450263 C15.4793287,14.2450263 13.8035533,12.6965469 13.8035533,9.25364838 C13.8035533,5.73762246 15.497549,4.37159222 17.6472985,4.37159222 C19.8879032,4.37159222 21.2724,5.64676717 21.2724,9.23542808 L21.2724,9.78179093 Z" id="Fill-8"></path>
                                    <path d="M27.0835192,5.90165443 L25.4985991,5.90165443 L25.4985991,12.7148164 L27.1017395,12.7148164 C28.6137784,12.7148164 29.3059037,11.6218445 29.3059037,9.25369762 C29.3059037,6.95818575 28.5955581,5.90165443 27.0835192,5.90165443 L27.0835192,5.90165443 Z M25.4985991,2.95045788 C25.4985991,3.47884665 25.4985991,4.04342981 25.4806251,4.57181857 L25.5168194,4.57181857 C25.9358864,4.48071706 26.7373335,4.37139525 27.3386035,4.37139525 C29.3059037,4.37139525 31.3463313,5.5374946 31.3463313,9.25369762 C31.3463313,12.6601555 29.6520894,14.2448294 26.9195365,14.2448294 C25.7354631,14.2448294 24.7153724,14.0446523 23.6041801,13.8260086 L23.6041801,0.0359481641 L25.4985991,0.0359481641 L25.4985991,2.95045788 Z" id="Fill-10"></path>
                                    <path d="M34.7348644,1.51134946 L35.8642769,1.51134946 L35.8642769,4.51720691 L38.2324238,4.51720691 L38.2324238,5.90170367 L35.8642769,5.90170367 L35.8642769,11.4396907 C35.8642769,12.1500363 36.1922423,12.7148657 37.0665706,12.7148657 L38.2870847,12.7148657 L38.2870847,13.8260579 C37.5767391,14.0811421 36.8661473,14.2448786 36.0647002,14.2448786 C35.0446095,14.2448786 33.9696117,13.7349564 33.9696117,11.949613 L33.9696117,5.90170367 L32.6944367,5.90170367 L32.6944367,4.51720691 L34.1338406,4.51720691 L34.7348644,1.51134946 Z" id="Fill-12"></path>
                                    <path d="M44.8270652,9.41750799 L42.8777391,9.76369374 C41.9125555,9.92743024 41.6025641,10.4011581 41.6025641,11.3850544 C41.6025641,12.3137974 42.1127326,12.8604065 42.9506203,12.8604065 C43.53367,12.8604065 44.0618125,12.7513309 44.8270652,12.514467 L44.8270652,9.41750799 Z M39.6717045,11.4032747 C39.6717045,9.74547343 40.7102618,8.83445832 42.677562,8.56115378 L44.8270652,8.26987516 L44.8270652,7.19512354 C44.8270652,6.26588812 44.3718039,5.90172829 43.2785857,5.90172829 L40.3638298,5.90172829 L40.3638298,4.75409546 C41.2566246,4.53545184 42.4224778,4.37146911 43.4425685,4.37146911 C45.5923179,4.37146911 46.7217305,5.50088164 46.7217305,7.46818186 L46.7217305,14.0991408 L45.2276657,14.0991408 L45.0639292,13.4434562 L45.0274886,13.4434562 C44.6448622,13.6985404 43.5701106,14.2266829 42.3495965,14.2266829 C40.5824734,14.2266829 39.6717045,13.1154907 39.6717045,11.4032747 L39.6717045,11.4032747 Z" id="Fill-14"></path>
                                    <path d="M55.0101706,11.312124 C55.0101706,12.9332384 53.8443175,14.244854 51.7310086,14.244854 C50.7837991,14.244854 49.8730302,14.0993378 49.1444644,13.8806942 L49.1444644,12.714841 L51.8221102,12.714841 C52.6238035,12.714841 53.1883866,12.2775538 53.1883866,11.6218691 C53.1883866,9.854746 48.9258207,10.1098302 48.9258207,6.99465097 C48.9258207,5.5554933 49.9641317,4.37141987 52.0771944,4.37141987 C52.8968618,4.37141987 53.8078769,4.53540259 54.4089006,4.71760562 L54.4089006,5.90167905 L51.8949914,5.90167905 C51.1117646,5.90167905 50.6926976,6.22939827 50.6926976,6.79422765 C50.6926976,8.48846955 55.0101706,8.34270713 55.0101706,11.312124" id="Fill-16"></path>
                                    <path d="M59.1088523,8.99858877 L62.5699711,4.51713305 L64.7561611,4.51713305 L61.2947961,8.99858877 L64.7561611,14.0992886 L62.4970898,14.0992886 L59.1088523,8.99858877 Z M57.0866449,14.0992886 L58.9813102,14.0992886 L58.9813102,0.0359235421 L57.0866449,0.0359235421 L57.0866449,14.0992886 Z" id="Fill-18"></path>
                                </g>
                            </g>
                        </g>
                    </g>
                </g>
            </g>
        </g>
    </g>
</svg>